<?xml version="1.0" standalone="no"?>
<!DOCTYPE svg PUBLIC "-//W3C//DTD SVG 20010904//EN"
 "http://www.w3.org/TR/2001/REC-SVG-20010904/DTD/svg10.dtd">
<svg version="1.0" xmlns="http://www.w3.org/2000/svg"
 width="2000.000000pt" height="2000.000000pt" viewBox="0 0 2000.000000 2000.000000"
 preserveAspectRatio="xMidYMid meet">
<metadata>
Created by potrace 1.11, written by Peter Selinger 2001-2013
</metadata>
<g transform="translate(0.000000,2000.000000) scale(0.100000,-0.100000)"
fill="#000000" stroke="none">
<path d="M9697 19964 c-1 -1 -74 -5 -162 -8 -88 -4 -182 -9 -210 -11 -27 -2
-84 -7 -125 -10 -41 -3 -97 -8 -125 -11 -51 -5 -99 -10 -195 -19 -104 -10
-285 -35 -440 -60 -85 -14 -171 -27 -190 -30 -32 -5 -151 -28 -210 -40 -14 -3
-47 -10 -75 -15 -506 -99 -1175 -303 -1725 -526 -74 -31 -148 -61 -165 -69
-16 -7 -102 -46 -190 -85 -751 -337 -1505 -803 -2165 -1339 -58 -47 -107 -88
-110 -91 -3 -3 -32 -27 -65 -55 -61 -50 -205 -178 -305 -269 -117 -108 -480
-472 -577 -579 -56 -61 -110 -121 -120 -132 -10 -11 -59 -67 -108 -125 -50
-58 -92 -107 -96 -110 -38 -35 -366 -465 -514 -675 -428 -609 -824 -1343
-1090 -2021 -36 -93 -70 -178 -75 -189 -14 -33 -66 -180 -121 -345 -50 -151
-59 -179 -113 -364 -27 -90 -112 -410 -120 -449 -3 -12 -18 -83 -35 -156 -17
-74 -34 -148 -36 -163 -3 -15 -14 -72 -24 -125 -25 -125 -44 -235 -56 -318 -3
-22 -10 -65 -15 -95 -5 -30 -12 -77 -15 -105 -3 -27 -8 -61 -11 -75 -2 -14 -7
-47 -9 -75 -3 -27 -7 -66 -10 -85 -2 -19 -7 -62 -10 -95 -4 -33 -8 -76 -10
-95 -4 -31 -7 -69 -20 -240 -27 -352 -27 -1245 0 -1430 2 -14 6 -65 10 -115 9
-125 16 -200 29 -300 2 -16 7 -59 11 -95 4 -36 9 -72 10 -81 2 -9 6 -40 10
-70 3 -30 8 -61 10 -69 2 -8 6 -34 9 -57 13 -97 18 -130 27 -178 6 -27 12 -63
14 -80 3 -16 9 -52 15 -80 6 -27 17 -84 25 -125 27 -137 54 -258 85 -387 18
-70 33 -135 35 -143 34 -156 250 -843 310 -985 7 -16 45 -113 85 -215 40 -102
85 -212 100 -245 15 -33 47 -105 70 -160 40 -91 278 -567 346 -692 l29 -53
8715 3 8714 2 34 60 c48 84 258 501 311 615 132 290 261 611 368 920 64 185
78 228 152 481 56 189 161 613 186 749 3 14 7 36 10 50 6 29 32 171 40 215 10
60 37 221 40 245 2 14 9 54 14 90 6 36 13 88 16 115 3 28 7 64 9 80 2 17 7 54
10 83 21 179 22 193 31 325 4 50 8 108 10 127 13 141 20 380 19 710 -1 338 -5
485 -19 667 -2 26 -7 91 -11 143 -3 52 -8 102 -9 110 -2 8 -6 49 -10 90 -5 65
-36 316 -51 420 -13 90 -37 237 -59 355 -13 72 -27 146 -30 165 -3 19 -10 51
-15 70 -5 19 -19 80 -31 135 -155 731 -455 1573 -813 2285 l-73 145 -3167 3
-3166 2 0 95 0 95 3114 0 3115 0 -41 73 c-139 246 -344 572 -507 807 -84 122
-347 478 -361 490 -3 3 -44 52 -90 110 -46 58 -87 107 -90 110 -3 3 -29 33
-59 68 l-53 62 -1794 0 -1794 0 0 65 0 65 1736 2 1735 3 -73 80 c-146 160
-563 571 -709 700 -140 124 -313 270 -403 340 -21 17 -48 38 -60 48 -44 39
-405 306 -500 371 -54 37 -111 76 -125 86 -25 17 -265 172 -306 197 -339 205
-496 292 -795 441 -265 133 -346 170 -575 267 -61 25 -119 50 -130 55 -213 94
-953 341 -1184 396 -9 2 -52 12 -96 24 -81 20 -359 85 -405 94 -14 2 -45 9
-70 14 -25 6 -62 13 -82 16 -21 3 -59 11 -85 17 -27 6 -61 12 -78 14 -16 2
-57 9 -90 15 -33 5 -109 17 -170 26 -60 8 -121 17 -135 19 -41 6 -102 15 -150
20 -25 3 -61 7 -80 10 -19 2 -66 7 -105 10 -38 3 -81 8 -95 10 -26 4 -164 15
-260 20 -30 2 -113 6 -185 10 -115 7 -772 15 -778 9z m-4002 -5404 c796 -72
1522 -357 2110 -827 127 -101 385 -351 486 -470 l70 -81 -53 -50 c-29 -27
-352 -322 -717 -656 -582 -531 -667 -605 -682 -594 -9 7 -58 49 -109 93 -404
350 -824 581 -1189 655 -346 70 -708 9 -914 -155 -246 -196 -230 -508 38 -705
146 -107 292 -181 1029 -516 676 -308 931 -433 1194 -583 731 -419 1136 -812
1365 -1326 138 -309 199 -611 199 -985 0 -415 -75 -743 -250 -1085 -32 -63
-58 -115 -56 -115 1 0 22 20 46 45 25 25 48 42 51 38 4 -3 7 -2 7 4 0 6 29 30
65 54 36 24 65 47 65 52 0 4 5 7 10 7 6 0 29 12 51 26 60 38 211 114 226 114
7 0 13 5 13 10 0 6 3 9 8 8 6 -2 85 27 187 67 11 4 29 9 40 10 11 1 30 7 43
14 12 6 22 9 22 6 0 -4 6 -3 13 2 6 4 17 8 22 9 6 1 30 7 54 12 25 6 49 9 53
6 4 -3 8 -1 8 4 0 5 6 9 13 9 6 0 28 4 47 7 19 4 51 9 70 12 19 2 49 6 65 9
66 12 167 17 310 17 128 0 270 -6 270 -12 0 -1 16 -3 35 -4 82 -7 297 -58 365
-86 11 -4 38 -15 60 -23 65 -24 159 -70 167 -82 4 -5 8 -7 8 -3 0 9 112 -61
122 -76 5 -7 8 -7 8 -1 0 6 5 2 11 -7 5 -10 16 -18 23 -18 8 0 17 -7 20 -16 3
-9 11 -14 18 -12 11 4 13 12 23 73 2 17 9 53 15 80 15 73 20 96 26 135 3 19 7
43 10 52 11 38 18 75 28 148 3 19 10 50 15 69 6 18 10 36 9 40 0 3 1 8 2 11 3
8 9 41 14 80 3 19 10 53 15 75 5 22 12 58 15 80 4 22 9 48 12 57 5 16 19 90
29 148 3 22 12 67 21 110 2 8 6 29 8 45 3 17 8 44 12 60 4 17 6 38 6 48 0 9 2
17 6 17 4 0 8 8 8 18 1 18 11 79 19 116 6 26 15 74 20 101 2 11 6 34 10 50 4
17 8 41 10 55 2 14 4 26 5 28 1 1 4 11 5 22 1 11 3 21 5 23 2 3 7 28 13 74 3
21 8 45 11 53 3 8 8 30 11 48 3 17 8 47 11 65 4 17 8 41 9 52 1 11 3 20 4 20
2 0 4 11 7 25 10 58 13 77 19 105 4 17 8 39 10 50 2 11 6 34 9 50 3 17 8 41
10 55 3 14 5 25 6 25 4 0 33 169 34 198 0 9 3 17 6 17 4 0 7 6 7 13 0 6 3 26
7 42 3 17 8 48 12 70 8 49 12 70 14 70 1 0 3 11 6 25 9 53 13 76 18 103 4 15
8 37 10 50 3 12 7 32 10 43 2 12 7 37 10 55 3 19 8 46 11 62 3 15 7 37 9 50 2
12 9 44 15 70 6 27 9 53 6 58 -4 5 -1 9 4 9 6 0 10 3 9 8 -1 4 2 30 7 57 8 50
10 64 20 108 5 22 15 70 19 94 1 7 5 16 9 19 4 4 2 13 -4 21 -6 7 -7 13 -2 13
5 0 10 6 10 13 0 6 3 26 7 42 3 17 9 44 12 60 8 43 12 60 14 60 1 0 3 16 5 35
5 34 11 70 15 80 1 3 2 8 2 11 0 3 3 23 9 45 13 56 21 105 23 134 0 14 4 27 8
30 4 3 8 21 9 40 2 19 5 40 8 45 6 11 7 19 15 75 3 19 8 46 11 60 14 59 29
140 29 168 1 12 4 22 7 22 6 0 19 69 24 126 1 11 5 26 9 32 7 11 10 30 21 122
2 14 4 26 5 28 3 3 5 11 14 62 5 25 10 54 13 65 2 11 6 30 9 43 2 12 7 34 10
50 3 15 6 37 7 50 1 12 4 22 7 22 3 0 6 10 7 23 1 28 12 88 19 99 3 4 -1 8 -8
8 -11 0 -11 2 0 9 7 4 15 22 18 39 6 43 12 77 24 137 6 28 13 64 16 80 2 17 7
37 9 45 5 18 14 64 20 100 5 32 13 78 20 110 3 14 8 36 10 50 3 14 11 55 19
91 9 37 16 73 18 80 8 38 79 155 118 195 57 59 162 109 245 118 11 1 25 4 30
7 6 2 43 4 82 4 40 0 73 2 73 5 0 3 71 6 158 6 342 4 497 9 504 19 5 6 8 6 8
-1 0 -6 12 -10 28 -8 25 3 142 7 597 19 94 3 258 7 365 10 107 3 277 7 377 8
101 1 183 4 183 7 0 3 11 5 25 5 14 0 25 -4 25 -8 0 -5 5 -5 12 -1 7 4 66 9
133 10 66 1 226 5 355 8 458 13 607 16 777 20 95 2 177 7 182 11 6 3 11 1 11
-5 0 -6 5 -8 10 -5 6 3 95 8 198 11 103 2 275 6 382 9 107 3 283 8 390 11 369
9 407 11 418 18 7 4 12 3 12 -3 0 -6 11 -6 30 -1 21 6 30 5 30 -3 0 -8 3 -8 8
-2 4 6 39 11 77 11 211 5 342 11 352 17 6 4 14 3 18 -3 4 -6 10 -8 14 -5 5 2
77 7 161 10 85 3 157 8 162 11 4 3 8 -3 8 -13 0 -23 -65 -362 -71 -367 -2 -2
-30 -6 -63 -7 -54 -3 -111 -14 -161 -33 -51 -20 -95 -42 -95 -48 0 -5 -6 -8
-14 -8 -8 0 -17 -7 -20 -16 -4 -9 -9 -14 -12 -11 -7 6 -63 -50 -102 -102 -15
-20 -33 -42 -39 -49 -7 -7 -13 -20 -13 -28 0 -8 -6 -17 -13 -20 -8 -3 -14 -10
-14 -17 0 -7 -7 -28 -16 -47 -26 -54 -47 -120 -39 -120 4 0 2 -4 -4 -8 -6 -4
-16 -32 -22 -62 -6 -30 -13 -68 -16 -85 -4 -16 -12 -55 -18 -85 -6 -30 -12
-64 -14 -75 -4 -24 -17 -94 -27 -140 -3 -11 -8 -40 -13 -65 -4 -25 -8 -47 -9
-50 -4 -18 -15 -80 -20 -105 -7 -44 -14 -75 -19 -93 -3 -9 -7 -34 -11 -56 -3
-21 -7 -41 -10 -45 -2 -4 -6 -25 -9 -47 -3 -21 -8 -51 -11 -67 -3 -15 -19 -94
-35 -175 -17 -81 -32 -160 -35 -177 -5 -33 -18 -107 -20 -115 -2 -7 -17 -80
-21 -105 -3 -16 -14 -68 -19 -95 -1 -3 -5 -25 -9 -50 -5 -25 -10 -54 -13 -65
-2 -11 -6 -31 -9 -45 -2 -14 -9 -45 -14 -70 -5 -25 -12 -58 -15 -75 -3 -16 -7
-41 -10 -55 -3 -14 -15 -74 -26 -135 -12 -60 -23 -119 -25 -130 -2 -11 -7 -33
-9 -50 -3 -16 -8 -37 -10 -45 -2 -8 -7 -28 -10 -45 -2 -16 -7 -41 -10 -55 -3
-14 -8 -40 -11 -59 -7 -39 -3 -20 -48 -246 -19 -99 -38 -193 -40 -210 -3 -16
-8 -41 -11 -55 -3 -14 -8 -38 -11 -55 -6 -35 -44 -231 -50 -260 -7 -34 -12
-57 -29 -150 -9 -49 -19 -99 -22 -110 -2 -11 -6 -31 -9 -45 -7 -39 -24 -122
-30 -150 -3 -14 -7 -41 -10 -60 -2 -19 -7 -42 -10 -52 -2 -9 -9 -40 -14 -70
-6 -29 -15 -75 -21 -103 -5 -27 -12 -61 -14 -75 -2 -14 -6 -34 -8 -45 -3 -11
-8 -40 -13 -65 -4 -25 -8 -47 -9 -50 -1 -3 -5 -25 -10 -50 -5 -25 -9 -47 -10
-50 -1 -3 -5 -25 -10 -50 -5 -25 -9 -47 -10 -50 -1 -3 -5 -25 -9 -50 -5 -25
-10 -54 -13 -65 -6 -29 -36 -182 -47 -245 -3 -14 -7 -36 -10 -50 -3 -14 -9
-41 -12 -60 -4 -19 -9 -44 -11 -55 -7 -35 -25 -138 -25 -142 1 -2 -3 -17 -8
-34 -5 -18 -12 -51 -15 -73 -4 -23 -10 -57 -15 -76 -5 -19 -11 -51 -14 -70 -3
-19 -8 -46 -11 -60 -3 -14 -7 -36 -10 -50 -3 -14 -14 -70 -25 -125 -11 -55
-22 -107 -23 -115 -2 -8 -7 -27 -11 -41 -4 -14 -9 -44 -11 -65 -1 -22 -3 -40
-4 -41 -1 -2 -1 -5 -1 -8 -1 -3 -7 -23 -15 -45 -8 -22 -15 -42 -15 -45 -3 -20
-62 -158 -71 -165 -3 -3 -12 -16 -19 -30 -48 -91 -205 -266 -310 -344 -30 -23
-64 -49 -74 -58 -11 -10 -28 -20 -38 -24 -10 -3 -18 -10 -18 -15 0 -6 -4 -8
-9 -5 -5 4 -11 2 -13 -3 -4 -11 -55 -42 -138 -83 -36 -17 -66 -35 -68 -40 -2
-4 -12 -8 -21 -8 -10 0 -21 -3 -25 -7 -4 -5 -11 -8 -14 -9 -4 0 -20 -7 -37
-14 -16 -7 -33 -14 -37 -14 -3 -1 -10 -4 -14 -8 -4 -5 -15 -8 -25 -8 -10 0
-24 -6 -31 -12 -7 -7 -17 -13 -23 -13 -5 0 -37 -9 -70 -19 -33 -10 -67 -20
-75 -22 -8 -2 -48 -12 -87 -22 -40 -10 -75 -16 -78 -14 -3 3 -5 1 -5 -4 0 -5
-12 -9 -27 -8 -16 1 -32 -1 -38 -4 -5 -3 -16 -7 -25 -8 -91 -12 -152 -18 -188
-18 -23 -1 -42 -3 -42 -6 0 -14 -401 -1 -480 15 -14 2 -41 7 -60 11 -91 15
-125 22 -125 24 0 1 -7 3 -16 5 -30 5 -134 36 -154 44 -11 5 -36 15 -55 22
-82 30 -204 94 -284 148 -58 39 -56 38 -116 91 -25 22 -48 40 -52 40 -5 0 -8
5 -8 11 0 7 -8 19 -18 28 -26 24 -77 95 -74 104 1 4 -2 7 -8 7 -10 0 -71 122
-77 155 -2 10 -7 22 -11 25 -7 5 -10 13 -15 48 -1 9 -6 23 -10 30 -5 7 -3 12
3 12 6 0 8 5 4 11 -25 41 -20 180 11 314 7 33 38 120 44 125 3 3 14 23 24 45
25 55 97 165 108 165 5 0 8 3 7 8 -8 23 199 220 302 288 22 15 40 31 40 36 0
5 4 7 9 4 5 -3 14 1 21 9 7 8 19 15 26 15 8 0 14 3 14 8 0 4 10 12 23 18 73
36 133 70 139 79 4 5 8 6 8 1 0 -5 7 -3 15 4 8 7 15 10 15 6 0 -3 15 3 33 14
17 11 40 20 49 20 9 0 18 3 20 8 3 7 160 63 171 61 1 0 16 5 32 11 17 7 38 14
48 16 9 2 27 7 40 10 12 3 29 7 37 9 8 2 15 4 15 5 0 2 26 8 70 15 22 3 63 10
90 15 96 18 110 20 195 26 127 10 465 5 465 -5 0 -1 16 -4 35 -6 45 -5 67 -9
229 -41 14 -3 28 -7 33 -10 5 -3 20 -8 35 -10 15 -3 33 -10 40 -16 7 -6 13 -8
13 -4 0 4 14 0 30 -9 17 -9 30 -13 30 -10 0 3 10 0 23 -7 12 -7 24 -13 27 -13
21 -2 195 -95 237 -126 29 -22 55 -39 58 -39 3 0 18 -11 33 -25 14 -13 29 -21
33 -17 6 6 64 278 74 347 2 11 8 45 14 75 6 30 13 66 16 80 3 14 11 59 20 100
8 41 17 88 19 104 3 16 10 52 16 80 15 75 17 85 55 281 19 99 36 191 39 205
11 52 26 126 31 160 4 19 10 54 16 78 5 23 12 59 15 80 3 20 8 40 9 43 2 3 7
28 11 55 3 27 8 52 10 55 2 4 6 24 10 44 3 21 8 47 10 59 4 20 18 88 29 146 3
14 7 36 10 50 2 14 7 39 10 55 2 17 13 73 24 125 11 52 22 112 25 134 4 21 8
41 10 45 2 3 7 28 10 55 4 27 9 53 11 56 2 4 9 33 14 66 15 84 20 116 27 144
8 33 11 51 18 91 3 19 8 45 11 59 3 14 7 36 10 50 3 14 7 36 10 50 2 14 9 48
14 75 72 365 91 465 95 490 3 17 15 75 26 130 12 55 23 111 25 125 2 14 6 34
8 45 2 11 7 36 11 55 3 19 8 46 11 60 3 14 8 39 10 55 3 17 8 37 10 45 12 42
14 80 5 81 -38 3 -68 2 -78 -5 -7 -4 -12 -3 -12 3 0 6 -7 8 -14 5 -27 -10
-136 -9 -136 1 0 7 -3 7 -8 0 -4 -6 -50 -11 -102 -12 -85 -1 -201 -4 -720 -18
-85 -3 -239 -7 -342 -9 -103 -2 -192 -7 -197 -10 -5 -4 -12 -2 -16 4 -4 6 -11
7 -17 4 -6 -4 -74 -8 -152 -10 -141 -3 -397 -9 -766 -20 -107 -3 -249 -6 -315
-8 -66 -1 -126 -5 -132 -9 -7 -5 -13 -4 -13 1 0 10 -42 8 -59 -3 -6 -3 -11 -1
-11 5 0 7 -6 8 -17 1 -10 -5 -26 -5 -40 0 -13 5 -23 5 -23 1 0 -4 -51 -8 -113
-9 -122 -1 -552 -12 -552 -13 0 0 -94 -3 -210 -6 -553 -13 -600 -16 -695 -38
-14 -4 -40 -9 -58 -12 -18 -3 -48 -12 -67 -20 -19 -8 -35 -11 -35 -7 0 5 -4 3
-8 -3 -4 -6 -29 -21 -56 -35 -78 -39 -160 -126 -206 -221 -23 -46 -40 -84 -39
-86 2 -4 -16 -89 -21 -94 -1 -2 -3 -12 -5 -23 -2 -11 -7 -36 -11 -55 -4 -19
-8 -44 -9 -55 -2 -11 -6 -36 -10 -55 -4 -19 -8 -41 -8 -47 0 -7 -3 -13 -7 -13
-3 0 -6 -10 -6 -22 0 -31 -15 -121 -22 -133 -6 -9 -12 -54 -15 -97 -1 -10 -4
-18 -7 -18 -3 0 -6 -8 -7 -17 -2 -44 -8 -73 -14 -73 -3 0 -5 -13 -3 -30 2 -16
0 -30 -4 -30 -4 0 -8 -8 -8 -17 -1 -27 -20 -138 -24 -138 -2 0 -9 -36 -14 -77
-2 -20 -7 -41 -10 -47 -4 -5 -7 -26 -8 -46 -1 -19 -4 -35 -7 -35 -4 0 -8 -12
-9 -27 -1 -16 -5 -39 -8 -53 -3 -14 -8 -41 -10 -60 -8 -54 -12 -75 -14 -75 -2
0 -8 -25 -15 -70 -3 -22 -8 -47 -10 -55 -5 -17 -16 -75 -20 -105 -2 -11 -4
-21 -5 -22 -2 -2 -4 -12 -5 -23 -1 -11 -4 -21 -5 -22 -1 -2 -4 -16 -6 -33 -4
-31 -6 -45 -24 -130 -6 -27 -13 -66 -16 -85 -3 -19 -8 -42 -11 -50 -3 -8 -8
-26 -9 -40 -4 -31 -11 -68 -19 -100 -3 -14 -8 -41 -10 -60 -2 -19 -4 -35 -5
-35 -1 0 -3 -7 -5 -15 -2 -8 -6 -28 -10 -45 -4 -16 -7 -40 -7 -52 0 -13 -4
-23 -8 -23 -4 0 -6 -11 -5 -25 2 -14 0 -27 -4 -30 -4 -2 -7 -18 -6 -35 1 -16
-1 -30 -5 -30 -4 0 -11 -28 -15 -62 -8 -63 -11 -76 -15 -80 -1 -2 -3 -14 -5
-28 -2 -14 -6 -36 -10 -50 -3 -14 -8 -39 -10 -57 -2 -18 -9 -41 -14 -52 -8
-14 -8 -22 -1 -26 8 -5 7 -11 -1 -21 -6 -7 -12 -28 -14 -46 -1 -18 -5 -40 -8
-48 -6 -17 -15 -60 -22 -110 -6 -34 -9 -53 -19 -96 -7 -33 -18 -98 -19 -111 0
-7 -3 -13 -7 -13 -4 0 -6 -10 -5 -22 1 -12 -4 -46 -11 -77 -7 -30 -11 -58 -8
-62 2 -4 0 -10 -5 -14 -5 -3 -10 -13 -9 -23 0 -9 -2 -26 -5 -37 -8 -37 -24
-120 -31 -165 -2 -14 -5 -25 -6 -25 -2 0 -8 -30 -12 -65 -2 -14 -6 -29 -9 -35
-4 -5 -5 -18 -4 -27 2 -10 0 -18 -3 -18 -4 0 -8 -12 -9 -27 -1 -28 -4 -43 -22
-133 -5 -25 -7 -48 -5 -52 3 -5 1 -8 -5 -8 -5 0 -8 -8 -6 -17 1 -10 0 -22 -3
-28 -4 -5 -8 -19 -9 -30 -1 -11 -5 -36 -9 -55 -4 -19 -7 -45 -8 -57 0 -13 -5
-23 -10 -23 -5 0 -7 -2 -4 -5 3 -4 2 -24 -3 -46 -5 -21 -12 -56 -15 -77 -3
-20 -9 -41 -12 -46 -3 -5 -6 -21 -8 -35 -2 -26 -7 -53 -19 -121 -4 -19 -8 -44
-10 -55 -2 -11 -4 -20 -5 -20 -1 0 -4 -18 -5 -40 -6 -75 -16 -139 -26 -157 -5
-10 -7 -18 -4 -18 7 0 -43 -130 -61 -157 -8 -13 -11 -23 -7 -23 5 0 3 -4 -3
-8 -6 -4 -21 -26 -34 -49 -13 -24 -28 -43 -32 -43 -5 0 -7 -4 -4 -8 3 -5 -4
-15 -15 -22 -10 -8 -19 -19 -19 -25 0 -13 -133 -151 -205 -213 -27 -24 -81
-64 -120 -90 -38 -25 -72 -49 -75 -52 -3 -3 -30 -18 -60 -34 -30 -16 -58 -34
-61 -39 -3 -5 -9 -8 -13 -8 -3 1 -30 -9 -59 -23 -105 -49 -150 -68 -169 -71
-11 -3 -25 -8 -32 -13 -9 -7 -78 -31 -106 -37 -3 0 -21 -6 -40 -13 -19 -6 -49
-14 -67 -17 -18 -3 -45 -10 -60 -16 -15 -6 -30 -10 -33 -10 -5 1 -61 -8 -95
-16 -11 -2 -31 -6 -45 -8 -14 -2 -45 -6 -70 -9 -188 -26 -406 -26 -625 0 -22
3 -51 6 -65 8 -14 1 -36 6 -50 11 -14 4 -34 9 -45 10 -11 1 -27 5 -35 8 -8 3
-28 9 -45 13 -16 4 -37 9 -45 11 -8 2 -21 5 -27 5 -7 1 -13 5 -13 10 0 4 -11
8 -24 8 -14 0 -28 5 -31 10 -4 6 -11 8 -16 5 -5 -4 -9 -1 -9 4 0 6 -7 11 -16
11 -8 0 -36 10 -62 22 -26 12 -50 21 -54 20 -5 -1 -8 3 -8 9 0 5 -4 7 -10 4
-5 -3 -10 -2 -10 4 0 5 -16 15 -35 22 -19 7 -35 17 -35 21 0 4 -7 8 -15 8 -8
0 -15 5 -15 10 0 6 -7 10 -15 10 -8 0 -15 5 -15 10 0 6 -7 10 -15 10 -8 0 -15
5 -15 12 0 6 -2 9 -5 6 -3 -3 -26 13 -52 36 -69 61 -125 116 -118 116 4 0 -5
12 -20 28 -52 55 -125 185 -125 222 0 11 -4 20 -8 20 -5 0 -9 6 -10 13 0 6 -5
30 -11 51 -5 22 -8 43 -5 47 2 4 0 10 -4 13 -10 6 -7 217 3 256 3 14 8 32 10
40 2 8 4 15 5 15 1 0 3 8 5 18 3 16 28 76 43 101 2 4 -33 -31 -79 -79 -632
-661 -1506 -984 -2661 -985 -1297 -1 -2323 432 -3119 1315 l-109 120 712 712
712 712 101 -97 c449 -429 989 -726 1521 -839 116 -24 148 -27 319 -26 162 1
207 5 305 26 189 40 321 101 454 207 240 194 293 447 146 695 -48 81 -195 233
-306 316 -208 156 -365 239 -1044 549 -641 293 -827 388 -1129 577 -303 190
-517 358 -741 583 -398 398 -613 796 -687 1272 -23 154 -23 460 1 617 72 470
276 861 636 1221 503 502 1146 785 1950 859 126 12 629 12 755 1z"/>
<path d="M1430 4906 c0 -18 241 -393 384 -599 88 -126 262 -364 276 -377 3 -3
27 -34 55 -70 27 -36 52 -67 55 -70 3 -3 17 -21 32 -42 15 -20 33 -42 40 -50
7 -7 56 -65 109 -128 53 -63 110 -129 125 -147 16 -17 44 -49 63 -70 179 -205
516 -543 760 -763 46 -41 89 -80 95 -86 16 -15 264 -223 315 -264 24 -19 58
-46 75 -60 220 -181 788 -577 1028 -715 427 -247 450 -259 743 -404 403 -199
618 -291 1035 -443 376 -137 873 -282 1210 -353 298 -63 521 -103 755 -135 83
-12 161 -23 175 -25 40 -6 184 -22 275 -30 28 -2 82 -7 120 -10 262 -24 426
-30 850 -30 381 0 543 5 735 21 30 3 78 7 106 9 28 2 73 6 100 9 27 3 78 8
114 11 74 7 83 8 280 35 281 38 402 58 705 119 96 19 252 55 435 101 279 69
923 274 1012 321 13 7 23 11 23 10 0 -11 336 128 690 286 130 58 506 251 650
333 22 13 60 34 85 48 156 87 673 411 690 432 3 4 34 26 70 50 125 84 435 316
565 424 27 22 59 48 70 57 44 36 242 205 280 239 529 479 953 936 1324 1430
47 63 88 117 91 120 8 7 228 321 287 410 64 97 253 398 253 405 0 3 -3856 5
-8570 5 -4714 0 -8570 -2 -8570 -4z"/>
</g>
</svg>
